# xmcd
#
# Track frame offsets: 
#        150
#        1034
#        20185
#        28983
#        51137
#        70860
#        73930
#        92706
#        111269
#        137769
#        155097
#        176054
#        197183
#        223201
#        245066
#        271604
#
# Disc length: 3965 seconds
#
# Revision: 2
# Processed by: cddbd v1.5.2PL0 Copyright (c) Steve Scherf et al.
# Submitted via: ExactAudioCopyFreeDBPlugin 1.0
#
DISCID=f40f7b10
DTITLE=Porterdavis - Live At Eddie's Attic
DYEAR=2007
DGENRE=Blues
TTITLE0=Introduction
TTITLE1=Smack You Back
TTITLE2=No Regrets Intro
TTITLE3=No Regrets
TTITLE4=Can't Be Satisfied
TTITLE5=Come Closer Intro
TTITLE6=Come Closer
TTITLE7=Little Bit Of Love
TTITLE8=Come On In My Kitchen
TTITLE9=Long Legs
TTITLE10=Diamond Eyed One
TTITLE11=Changes And Transmissions
TTITLE12=White Freightliner
TTITLE13=Since You've Been Gone
TTITLE14=Penny Candy
TTITLE15=Custard Pie
EXTD=
EXTT0=
EXTT1=
EXTT2=
EXTT3=
EXTT4=
EXTT5=
EXTT6=
EXTT7=
EXTT8=
EXTT9=
EXTT10=
EXTT11=
EXTT12=
EXTT13=
EXTT14=
EXTT15=
PLAYORDER=
